<svg version="1.2" baseProfile="tiny" xmlns="http://www.w3.org/2000/svg" viewBox="0 0 85.8 83.8">
  <ellipse fill="#FFF" cx="42.9" cy="41.9" rx="42.9" ry="41.9"/>
  <g fill="#00A2FF">
    <path d="M51.6 10.1l.2.5c1.5-.2 3.3-.6 4.8-.9l1.3-.1-2.2 1c1.1-.3 1.6.1 2 .1 1.2.3 3.5-.8 5.6-1.4C61.2 8.1 59 7 56.6 6.2c-.7.2-1.4.4-2.1.7v.3l.7-.2h2c-1.7.8-7.4 2.4-6.3 3.4l.7-.3zM45.1 3.9h-1.7c-4.2 0-8.3.7-12.1 1.9l1.3-.4c4.7-.6 7.6-1.1 12.5-1.5zM18 65.5l-.2 1.9-.6 1.6c-.2-3.6-.8-8.2-.8-8.2l-.2-1.5-.9 7.1-.3 1.2-.3-1.8c0 .8-.1 1.1-.1 1.3 1.2 1.3 2.6 2.6 4 3.8l-.3-5-.3-.4zM64.4 10c-1.6.6-3.2 1.2-4.8 1.7-2.9 1-5.8 1.8-8.6 3.1-.7.2-.2.6-.9.8l-1.1.3c.5.2.2.7-.2.8-3.1 1.2-6.6 2.5-9.6 2.5-1.1.1-2.2.2-3.6.6 0 0-1.5 0-1.8.1 0 0-3.5.6-3.8.7-1 .3-1.3.6-1.3.6-1 .3-3.1.8-3.1.6h-.1l-.2.8c-.3 3-.5 6.1-.7 9.3l.6.1c.7-.1 1.5-.1 2.2-.2l2.4-.3 4.3-.4c2.8-.3 5.5-.5 8.1-.4.8-.2 1.7-.3 2-.1 1 .8 2.4 1.1 3.8.7.1.4.4.5.7.6.9 0 2.4-.3 2.1-.2-.3.2.7.4.4.6-.6.3-1.5.3-2.1.4l.1.4c.9-.2 1.8.2 2.7 0 .9 0 1.1-.1.8.2-1.1.6-2.7.8-4 1 .5-.1.5 0 .5.2 0 0-2.2.9-4 1.2v1.6l.6-.1h1.4c-1.5.4-6.2 2.4-5.5 2.6l.6-.1.1.5c1.3 0 4.2.2 5.5.2l-1.3.3-1 .1c1-.1 1.4.3 1.7.5 1.1.6 3.3-.2 5.3-.4.3-.1.4.3.4.5 1.3-.5 2.3-.3 3.7-.5-2.6 1-5.3 1.4-7.9 1.8-2.6.4-3.7 2.3-6.2 3-.6.1-2.5.7-2.8.8-1.4.4-3.4 0-4.7.3-.7.1-1.3.2-2 .3h-1.5c-1.4.8-4.9 1.9-7.8 2.7-.1 3.1-.3 6.1-.5 9.2 0 1.9.1 4.1-.2 4.6-.9 2.2-1.4 5-1.3 8.6-.3 0-.1.7-.1 1.4 6.1 4 13.5 6.3 21.4 6.3 21.4 0 38.7-17 38.7-37.9.3-13.5-6.8-25.3-17.4-32z"/>
  </g>
</svg>
